Coordinates
version=1
nRows=12
nColumns=42
inDegrees=yes

Units are S.I. units (second, meters, Newtons, ...)
If the header above contains a line with 'inDegrees', this indicates whether rotational values are in degrees (yes) or radians (no).

endheader
time	pelvis_tilt	pelvis_list	pelvis_rotation	pelvis_tx	pelvis_ty	pelvis_tz	hip_flexion_r	hip_adduction_r	hip_rotation_r	knee_angle_r	knee_adduction_r	knee_angle_r_beta	ankle_angle_r	subtalar_angle_r	mtp_angle_r	hip_flexion_l	hip_adduction_l	hip_rotation_l	knee_angle_l	knee_adduction_l	knee_angle_l_beta	ankle_angle_l	subtalar_angle_l	mtp_angle_l	lumbar_extension	lumbar_bending	lumbar_rotation	arm_flex_r	arm_add_r	arm_rot_r	elbow_flex_r	pro_sup_r	wrist_flex_r	wrist_dev_r	arm_flex_l	arm_add_l	arm_rot_l	elbow_flex_l	pro_sup_l	wrist_flex_l	wrist_dev_l
      1.27000000	      1.85168982	      6.28783392	      5.93827487	     -1.04230682	      0.98787113	      0.31893285	     13.74180521	     -6.95342724	    -18.81798793	     11.31255839	      0.10645409	      0.19744139	     -4.26334098	      3.73072441	     -7.94187697	    -17.44281835	      3.35448972	     -0.24098337	     11.10348961	      0.65930673	      0.19379245	      7.98812516	      9.81490949	     -7.94187697	    -21.86332483	     -7.83445182	     -9.01772218	    -11.28188462	     -9.58980768	     15.79147690	     36.04014383	     90.00000001	      0.00000000	      0.00000000	     16.92857424	    -19.14141176	      9.69211690	     48.22662423	     90.00000001	      0.00000000	      0.00000000
      1.28000000	      1.84400279	      6.37765873	      6.01255948	     -1.03490588	      0.98959698	      0.32074338	     12.98456820	     -6.87812633	    -18.97833331	     10.83064943	      0.19877481	      0.18903049	     -3.89455345	      4.03577885	     -7.93681133	    -16.84315731	      3.00071789	     -0.27274342	     12.95369852	      1.12086770	      0.22608469	      6.89738351	      9.15863979	     -7.93681133	    -21.97988612	     -7.94877854	     -9.08106679	    -10.73218678	     -9.45945819	     15.68772831	     35.93916051	     90.00000001	      0.00000000	      0.00000000	     16.47073672	    -19.23799439	      9.96570378	     47.50822027	     90.00000001	      0.00000000	      0.00000000
      1.29000000	      1.85044876	      6.36349619	      6.13731419	     -1.02743811	      0.99130640	      0.32245001	     12.12295279	     -6.69305440	    -19.27278557	     10.17342045	      0.31750879	      0.17755968	     -3.61810020	      4.49030308	     -7.93009983	    -16.11920381	      2.54154695	     -0.39601444	     15.04302429	      1.49135169	      0.26255030	      5.83155214	      8.26363327	     -7.93009983	    -22.06499597	     -7.93072302	     -9.14747053	    -10.16506369	     -9.36815644	     15.53778272	     35.81601355	     90.00000001	      0.00000000	      0.00000000	     15.95002026	    -19.35319299	     10.32279710	     46.79314183	     90.00000001	      0.00000000	      0.00000000
      1.30000000	      1.91460926	      6.46273777	      6.21858399	     -1.02011992	      0.99305656	      0.32428596	     11.24469346	     -6.60940256	    -19.50466805	      9.60362835	      0.40151754	      0.16761493	     -3.32936857	      4.93043100	     -7.92331299	    -15.39597569	      2.11838346	     -0.31490462	     17.21847575	      2.06491383	      0.30051909	      4.71063058	      7.57671218	     -7.92331299	    -22.24076755	     -8.05843357	     -9.17850924	     -9.59366775	     -9.26889068	     15.43712087	     35.82438367	     90.00000001	      0.00000000	      0.00000000	     15.43714021	    -19.49936978	     10.57034577	     46.21103313	     90.00000001	      0.00000000	      0.00000000
      1.31000000	      1.99024740	      6.51285386	      6.29140295	     -1.01289997	      0.99471988	      0.32619969	     10.36774786	     -6.44595443	    -19.81327117	      9.01305660	      0.43272552	      0.15730751	     -3.16159383	      5.51304786	     -7.91259272	    -14.53511951	      1.59843644	     -0.22897370	     19.63480595	      2.71825418	      0.34269201	      3.66768451	      6.79360160	     -7.91259272	    -22.41256848	     -8.14340533	     -9.18298435	     -8.98502660	     -9.19949283	     15.38016371	     35.84956830	     90.00000001	      0.00000000	      0.00000000	     14.88187835	    -19.66794728	     10.78745831	     45.69684402	     90.00000001	      0.00000000	      0.00000000
      1.32000000	      2.09659014	      6.71385084	      6.38454392	     -1.00572370	      0.99633491	      0.32787591	      9.42457707	     -6.52455022	    -20.06092549	      8.44344286	      0.62311748	      0.14736588	     -2.75962292	      5.89799639	     -7.90512853	    -13.64743510	      1.28129964	     -0.08018948	     22.12021290	      3.25246964	      0.38607055	      2.43250150	      6.19419156	     -7.90512853	    -22.62932189	     -8.36777523	     -9.19440905	     -8.39930495	     -9.16111688	     15.40299282	     35.94166227	     90.00000001	      0.00000000	      0.00000000	     14.33282735	    -19.82725583	     10.85451408	     45.26520787	     90.00000001	      0.00000000	      0.00000000
      1.33000000	      2.21236135	      6.86578924	      6.45274061	     -0.99867247	      0.99783736	      0.32957119	      8.49222707	     -6.54838405	    -20.27229958	      7.89543111	      0.82739089	      0.13780127	     -2.44065618	      6.30759843	     -7.89801925	    -12.63135469	      0.90581345	      0.08875990	     24.80206060	      3.82639395	      0.43287762	      1.27759673	      5.54820209	     -7.89801925	    -22.84816398	     -8.54359049	     -9.21193643	     -7.75213444	     -9.14849745	     15.47523969	     36.07001683	     90.00000001	      0.00000000	      0.00000000	     13.71061914	    -19.99352829	     10.85742463	     44.87721280	     90.00000001	      0.00000000	      0.00000000
      1.34000000	      2.31681677	      6.99078999	      6.49765662	     -0.99177417	      0.99916050	      0.33133012	      7.61520793	     -6.52019399	    -20.49873291	      7.36339101	      0.98098457	      0.12851542	     -2.17557949	      6.70790589	     -7.89060884	    -11.48904229	      0.48505793	      0.26609130	     27.60792311	      4.42482128	      0.48184916	      0.24953146	      4.87794115	     -7.89060884	    -23.04078303	     -8.71497298	     -9.15483198	     -7.08496801	     -9.18125650	     15.61881906	     36.20988665	     90.00000001	      0.00000000	      0.00000000	     13.08907824	    -20.15597398	     10.75454941	     44.57741430	     90.00000001	      0.00000000	      0.00000000
      1.35000000	      2.42652121	      7.10760549	      6.49258838	     -0.98499996	      1.00032057	      0.33311551	      6.77859543	     -6.48793609	    -20.67615100	      6.89696733	      1.14267592	      0.12037479	     -1.90345979	      7.07790251	     -7.88326616	    -10.27778504	      0.07020956	      0.48607593	     30.45355726	      5.03432772	      0.53151484	     -0.66102349	      4.24134778	     -7.88326616	    -23.23187822	     -8.89237307	     -9.03955153	     -6.38026708	     -9.24789435	     15.81252006	     36.37846157	     90.00000001	      0.00000000	      0.00000000	     12.44933151	    -20.31314503	     10.54963359	     44.33101102	     90.00000001	      0.00000000	      0.00000000
      1.36000000	      2.51894878	      7.20489417	      6.48698389	     -0.97836855	      1.00130937	      0.33487880	      5.99431607	     -6.42984761	    -20.84438832	      6.45456169	      1.28112432	      0.11265335	     -1.62178303	      7.41899510	     -7.87589234	     -8.95189086	     -0.36560523	      0.71790311	     33.34323357	      5.63422120	      0.58194921	     -1.43894588	      3.56324100	     -7.87589234	    -23.39448758	     -9.05292169	     -8.87292096	     -5.67372347	     -9.35129936	     16.06619131	     36.54455713	     90.00000001	      0.00000000	      0.00000000	     11.78928927	    -20.45539155	     10.23772931	     44.14114141	     90.00000001	      0.00000000	      0.00000000
      1.37000000	      2.52832630	      7.17547312	      6.41908622	     -0.97200167	      1.00199328	      0.33679190	      5.43083889	     -6.19862928	    -20.96476198	      6.14289988	      1.29682173	      0.10721383	     -1.46441630	      7.75739645	     -7.86581513	     -7.43391862	     -0.94524504	      0.97553887	     36.26968323	      6.31842701	      0.63302539	     -1.98054806	      2.79116025	     -7.86581513	    -23.44122952	     -9.12357452	     -8.62281231	     -4.87839853	     -9.50192853	     16.50941103	     36.72181148	     90.00000001	      0.00000000	      0.00000000	     11.08014563	    -20.54183511	      9.68961746	     44.01510093	     90.00000001	      0.00000000	      0.00000000
      1.38000000	      2.66080344	      7.29514974	      6.30898713	     -0.96555204	      1.00277819	      0.33853460	      4.68119266	     -6.17002447	    -21.05058433	      5.80465696	      1.42415819	      0.10131038	     -1.11427056	      8.01425073	     -7.85828516	     -6.12051750	     -1.30446065	      1.24297757	     38.90069141	      6.88339633	      0.67894515	     -2.43800068	      2.16242909	     -7.85828516	    -23.62696025	     -9.34334464	     -8.33050244	     -4.10659990	     -9.66113809	     16.80840443	     36.90382157	     90.00000001	      0.00000000	      0.00000000	     10.43108878	    -20.65127782	      9.22863523	     43.88806462	     90.00000001	      0.00000000	      0.00000000
